<svg width="30" height="30" viewBox="0 0 30 30" fill="none" xmlns="http://www.w3.org/2000/svg">
<g clip-path="url(#clip0_574_8097)">
<path d="M28.5613 9.6L27.475 8.75H27.5012V2.5H25.0012V6.81375L17.3113 0.796248C15.9513 -0.268752 14.05 -0.268752 12.69 0.796248L1.43875 9.6C0.525 10.315 0 11.3925 0 12.5537V30H11.25V18.75C11.25 18.0612 11.81 17.5 12.5 17.5H17.5C18.19 17.5 18.75 18.0612 18.75 18.75V30H30V12.5537C30 11.3925 29.475 10.315 28.5613 9.6ZM27.5 27.5H21.25V18.75C21.25 16.6825 19.5675 15 17.5 15H12.5C10.4325 15 8.75 16.6825 8.75 18.75V27.5H2.5V12.5537C2.5 12.1662 2.675 11.8075 2.98 11.5687L14.23 2.765C14.6838 2.41 15.3162 2.41 15.77 2.765L27.02 11.5687C27.325 11.8075 27.5 12.1662 27.5 12.5537V27.5Z" fill="black"/>
</g>
<defs>
<clipPath id="clip0_574_8097">
<rect width="30" height="30" fill="white"/>
</clipPath>
</defs>
</svg>
