<svg width="30" height="30" viewBox="0 0 30 30" fill="none" xmlns="http://www.w3.org/2000/svg">
<path d="M23.75 2.5H11.25C9.87125 2.5 8.75 3.62125 8.75 5V12.5H6.25C4.87125 12.5 3.75 13.6213 3.75 15V26.25C3.75 26.5815 3.8817 26.8995 4.11612 27.1339C4.35054 27.3683 4.66848 27.5 5 27.5H25C25.3315 27.5 25.6495 27.3683 25.8839 27.1339C26.1183 26.8995 26.25 26.5815 26.25 26.25V5C26.25 3.62125 25.1287 2.5 23.75 2.5ZM6.25 15H13.75V25H6.25V15ZM23.75 25H16.25V15C16.25 13.6213 15.1287 12.5 13.75 12.5H11.25V5H23.75V25Z" fill="black"/>
<path d="M13.75 7.5H16.25V10H13.75V7.5ZM18.75 7.5H21.25V10H18.75V7.5ZM18.75 12.5388H21.25V15H18.75V12.5388ZM18.75 17.5H21.25V20H18.75V17.5ZM8.75 17.5013H11.25V20.0012H8.75V17.5013Z" fill="black"/>
</svg>
