<svg width="16" height="14" viewBox="0 0 16 14" fill="none" xmlns="http://www.w3.org/2000/svg">
<path fill-rule="evenodd" clip-rule="evenodd" d="M0.787109 6.99996C0.787109 3.53667 3.81759 0.729126 7.55587 0.729126C11.2942 0.729126 14.3246 3.53667 14.3246 6.99996C14.3246 10.4633 11.2942 13.2708 7.55587 13.2708C3.81759 13.2708 0.787109 10.4633 0.787109 6.99996ZM7.55587 1.60413C4.33921 1.60413 1.73159 4.01992 1.73159 6.99996C1.73159 9.97998 4.33921 12.3958 7.55587 12.3958C10.7725 12.3958 13.3802 9.97998 13.3802 6.99996C13.3802 4.01992 10.7725 1.60413 7.55587 1.60413Z" fill="white"/>
<path fill-rule="evenodd" clip-rule="evenodd" d="M7.73568 5.10413C6.47493 5.10413 5.50942 5.98088 5.50942 6.99996C5.50942 8.01904 6.47493 8.89579 7.73568 8.89579C8.05788 8.89579 8.36238 8.83769 8.63678 8.73403C8.87825 8.6428 9.15391 8.75019 9.25239 8.97396C9.35087 9.19767 9.23489 9.45299 8.99341 9.54423C8.60668 9.69035 8.1811 9.77079 7.73568 9.77079C6.01575 9.77079 4.56494 8.55816 4.56494 6.99996C4.56494 5.44173 6.01575 4.22913 7.73568 4.22913C8.1811 4.22913 8.60668 4.30957 8.99341 4.45567C9.23489 4.54691 9.35087 4.80225 9.25239 5.02598C9.15391 5.24971 8.87825 5.35713 8.63678 5.26589C8.36238 5.16223 8.05788 5.10413 7.73568 5.10413Z" fill="white"/>
</svg>
