<svg width="30" height="30" viewBox="0 0 30 30" fill="none" xmlns="http://www.w3.org/2000/svg">
<path d="M24.8787 10.7325C24.8195 10.5968 24.7365 10.4728 24.6338 10.3663L17.1337 2.86625C17.0272 2.76348 16.9032 2.68051 16.7675 2.62125C16.73 2.60375 16.69 2.59375 16.65 2.58C16.5454 2.54441 16.4365 2.52297 16.3263 2.51625C16.3 2.51375 16.2762 2.5 16.25 2.5H7.5C6.12125 2.5 5 3.62125 5 5V25C5 26.3787 6.12125 27.5 7.5 27.5H22.5C23.8787 27.5 25 26.3787 25 25V11.25C25 11.2238 24.9862 11.2 24.9837 11.1725C24.9776 11.0621 24.9562 10.9532 24.92 10.8488C24.9075 10.8088 24.8962 10.77 24.8787 10.7325ZM20.7325 10H17.5V6.7675L20.7325 10ZM7.5 25V5H15V11.25C15 11.5815 15.1317 11.8995 15.3661 12.1339C15.6005 12.3683 15.9185 12.5 16.25 12.5H22.5L22.5025 25H7.5Z" fill="black"/>
<path d="M10 15H20V17.5H10V15ZM10 20H20V22.5H10V20ZM10 10H12.5V12.5H10V10Z" fill="black"/>
</svg>
