<svg width="21" height="20" viewBox="0 0 21 20" fill="none" xmlns="http://www.w3.org/2000/svg">
<path fill-rule="evenodd" clip-rule="evenodd" d="M17.2528 0.833344C18.6335 0.833344 19.7528 1.95264 19.7528 3.33334V16.6667C19.7528 18.0474 18.6335 19.1667 17.2528 19.1667H3.91943C2.53873 19.1667 1.41943 18.0474 1.41943 16.6667V3.33334C1.41943 1.95264 2.53873 0.833344 3.91943 0.833344H17.2528ZM17.2528 2.50001C17.713 2.50001 18.0861 2.87311 18.0861 3.33334V16.6667C18.0861 17.1269 17.713 17.5 17.2528 17.5H13.0861V11.6666H14.8163C15.1749 11.6666 15.4934 11.4371 15.6069 11.0968L15.976 9.98926C16.1109 9.58451 15.8097 9.16659 15.3831 9.16659H13.0861V7.49994C13.0861 7.08328 13.5028 6.66661 13.9194 6.66661H15.5861C16.0464 6.66661 16.4194 6.29351 16.4194 5.83328V5.26162C16.4194 4.99244 16.2475 4.75109 15.9872 4.6824C14.8949 4.39414 13.9194 4.39414 13.9194 4.39414C11.8361 4.39414 10.5861 5.83328 10.5861 7.08328V9.16659H8.91943C8.4592 9.16659 8.0861 9.53968 8.0861 9.99993V10.8333C8.0861 11.2935 8.45919 11.6666 8.91943 11.6666H10.5861V17.5H3.91943C3.4592 17.5 3.0861 17.1269 3.0861 16.6667V3.33334C3.0861 2.87311 3.4592 2.50001 3.91943 2.50001H17.2528Z" fill="white"/>
</svg>
