<svg width="30" height="30" viewBox="0 0 30 30" fill="none" xmlns="http://www.w3.org/2000/svg">
<path d="M2.21619 6.47653H26.2944V23.2764H2.21619V6.47653Z" fill="white"/>
<path d="M22.5391 11.2942H25.8546V18.7503H22.5391V11.2942ZM2.71033 11.2942H6.02584V18.7503H2.71033V11.2942Z" fill="white"/>
<path d="M23.6213 6.10593H4.90424C3.24621 6.10873 1.90283 7.45209 1.90002 9.10989V20.8849C1.90283 22.543 3.24619 23.8863 4.90399 23.8891H23.6213C25.2794 23.8863 26.6227 22.543 26.6255 20.8852V9.1151C26.6255 7.45494 25.2811 6.10875 23.6216 6.10597L23.6213 6.10593ZM13.739 17.4212C12.6021 17.1842 11.7601 16.1904 11.7601 15C11.7601 13.8095 12.6021 12.8158 13.723 12.5816L13.739 17.4212ZM14.7272 12.5788C15.8642 12.8158 16.7062 13.8095 16.7062 15C16.7062 16.1904 15.8642 17.1842 14.7433 17.4184L14.7272 12.5788V12.5788ZM2.86848 11.5412H5.00305C5.49699 11.5412 5.89738 11.9416 5.89738 12.4355V17.5694C5.89738 18.0633 5.49699 18.4637 5.00305 18.4637H2.86848V11.5461V11.5412ZM2.86848 20.8898V19.447H5.00305C6.04277 19.447 6.88563 18.6041 6.88563 17.5644V12.4503C6.88563 11.4106 6.04277 10.5678 5.00305 10.5678H2.86848V9.12494C2.87128 8.01267 3.77221 7.11176 4.88421 7.10896H13.739V11.5955C12.0662 11.8577 10.8016 13.2886 10.8016 15.0148C10.8016 16.741 12.0662 18.1719 13.7195 18.4316L13.739 22.9206H4.90422C4.89981 22.9207 4.89459 22.9207 4.88936 22.9207C3.77322 22.9207 2.86844 22.0159 2.86844 20.8998C2.86844 20.8963 2.86846 20.8928 2.86848 20.8893V20.8898ZM23.6213 22.9058H14.7272V18.4193C16.4001 18.157 17.6646 16.7262 17.6646 15C17.6646 13.2738 16.4001 11.8429 14.7468 11.5832L14.7272 7.09413H23.6213C24.7336 7.09694 25.6345 7.99784 25.6373 9.10987V10.5529H23.6213C22.5816 10.5529 21.7387 11.3958 21.7387 12.4355V17.5694C21.7387 18.6091 22.5816 19.452 23.6213 19.452H25.5977V20.8948C25.5925 21.9913 24.7148 22.8811 23.6234 22.9058H23.6213ZM25.6373 11.5412V18.4588H23.6213C23.1274 18.4588 22.727 18.0584 22.727 17.5645V12.4504C22.727 11.9564 23.1274 11.556 23.6213 11.556H25.5978L25.6373 11.5412Z" fill="black"/>
</svg>
