<svg width="31" height="30" viewBox="0 0 31 30" fill="none" xmlns="http://www.w3.org/2000/svg">
<mask id="path-2-inside-1_697_444" fill="white">
<path fill-rule="evenodd" clip-rule="evenodd" d="M9.40124 7.77764L15.9377 12.5456L22.6152 7.61343C23.6353 6.80785 24.9433 6.66863 26.0121 7.20632C27.0987 7.75298 27.8296 8.93908 27.8296 10.5588V20.9522C27.8296 21.5416 27.7555 22.386 27.3063 23.0976C26.8241 23.8616 25.9783 24.3678 24.6787 24.3678H22.0658C21.7207 24.3678 21.4408 24.088 21.4408 23.7428V16.501L16.313 20.3147C16.0912 20.4797 15.7873 20.4793 15.5658 20.3138L10.4683 16.5045V20.8982C10.4683 21.2433 10.1885 21.5232 9.84331 21.5232C9.49814 21.5232 9.21831 21.2433 9.21831 20.8982V15.2572C9.21831 15.0206 9.35185 14.8043 9.56333 14.6985C9.7748 14.5925 10.028 14.615 10.2175 14.7566L15.941 19.0336L21.6928 14.7557C21.8825 14.6147 22.1353 14.5926 22.3465 14.6987C22.5576 14.8048 22.6908 15.021 22.6908 15.2572V23.1178H24.6787C25.6088 23.1178 26.0261 22.784 26.2493 22.4303C26.5056 22.0242 26.5796 21.4733 26.5796 20.9522V10.5588C26.5796 9.33094 26.0476 8.62344 25.4503 8.32297C24.8385 8.01512 24.0461 8.07278 23.3838 8.59918C23.3781 8.60377 23.3722 8.60825 23.3663 8.61263L16.3113 13.8236C16.0917 13.9858 15.7922 13.9867 15.5717 13.8258L8.65686 8.78188C8.03704 8.31985 7.12025 8.04102 6.41683 8.14765C6.08145 8.1985 5.8275 8.33037 5.65374 8.53599C5.47988 8.74174 5.32959 9.0885 5.32959 9.67604V21.4363C5.32959 22.2628 5.62493 22.6557 5.90739 22.8585C6.22425 23.086 6.62416 23.1435 6.88458 23.1202C6.90303 23.1186 6.92155 23.1178 6.94008 23.1178H8.59331C8.9385 23.1178 9.21831 23.3976 9.21831 23.7428C9.21831 24.088 8.9385 24.3678 8.59331 24.3678H6.96568C6.48163 24.4046 5.78049 24.3062 5.17841 23.874C4.52941 23.408 4.07959 22.6143 4.07959 21.4363V9.67604C4.07959 8.87303 4.28858 8.21485 4.69899 7.72919C5.1095 7.2434 5.66484 6.99738 6.22946 6.91178C7.32485 6.74572 8.56945 7.15873 9.40124 7.77764Z"/>
</mask>
<path fill-rule="evenodd" clip-rule="evenodd" d="M9.40124 7.77764L15.9377 12.5456L22.6152 7.61343C23.6353 6.80785 24.9433 6.66863 26.0121 7.20632C27.0987 7.75298 27.8296 8.93908 27.8296 10.5588V20.9522C27.8296 21.5416 27.7555 22.386 27.3063 23.0976C26.8241 23.8616 25.9783 24.3678 24.6787 24.3678H22.0658C21.7207 24.3678 21.4408 24.088 21.4408 23.7428V16.501L16.313 20.3147C16.0912 20.4797 15.7873 20.4793 15.5658 20.3138L10.4683 16.5045V20.8982C10.4683 21.2433 10.1885 21.5232 9.84331 21.5232C9.49814 21.5232 9.21831 21.2433 9.21831 20.8982V15.2572C9.21831 15.0206 9.35185 14.8043 9.56333 14.6985C9.7748 14.5925 10.028 14.615 10.2175 14.7566L15.941 19.0336L21.6928 14.7557C21.8825 14.6147 22.1353 14.5926 22.3465 14.6987C22.5576 14.8048 22.6908 15.021 22.6908 15.2572V23.1178H24.6787C25.6088 23.1178 26.0261 22.784 26.2493 22.4303C26.5056 22.0242 26.5796 21.4733 26.5796 20.9522V10.5588C26.5796 9.33094 26.0476 8.62344 25.4503 8.32297C24.8385 8.01512 24.0461 8.07278 23.3838 8.59918C23.3781 8.60377 23.3722 8.60825 23.3663 8.61263L16.3113 13.8236C16.0917 13.9858 15.7922 13.9867 15.5717 13.8258L8.65686 8.78188C8.03704 8.31985 7.12025 8.04102 6.41683 8.14765C6.08145 8.1985 5.8275 8.33037 5.65374 8.53599C5.47988 8.74174 5.32959 9.0885 5.32959 9.67604V21.4363C5.32959 22.2628 5.62493 22.6557 5.90739 22.8585C6.22425 23.086 6.62416 23.1435 6.88458 23.1202C6.90303 23.1186 6.92155 23.1178 6.94008 23.1178H8.59331C8.9385 23.1178 9.21831 23.3976 9.21831 23.7428C9.21831 24.088 8.9385 24.3678 8.59331 24.3678H6.96568C6.48163 24.4046 5.78049 24.3062 5.17841 23.874C4.52941 23.408 4.07959 22.6143 4.07959 21.4363V9.67604C4.07959 8.87303 4.28858 8.21485 4.69899 7.72919C5.1095 7.2434 5.66484 6.99738 6.22946 6.91178C7.32485 6.74572 8.56945 7.15873 9.40124 7.77764Z" fill="white"/>
<path d="M9.40124 7.77764L8.65501 8.78053L8.6646 8.78752L9.40124 7.77764ZM15.9377 12.5456L15.2011 13.5555L15.9423 14.0962L16.6804 13.551L15.9377 12.5456ZM22.6152 7.61343L23.3579 8.61889L23.3741 8.60692L23.3899 8.59443L22.6152 7.61343ZM26.0121 7.20632L25.4503 8.32296L25.4503 8.32297L26.0121 7.20632ZM27.3063 23.0976L28.3634 23.7648L28.3634 23.7647L27.3063 23.0976ZM21.4408 16.501H22.6908V14.0135L20.6949 15.4979L21.4408 16.501ZM16.313 20.3147L15.567 19.3117L15.5668 19.3119L16.313 20.3147ZM15.5658 20.3138L14.8176 21.3151L14.8176 21.3152L15.5658 20.3138ZM10.4683 16.5045L11.2166 15.5032L9.21831 14.0099V16.5045H10.4683ZM9.56333 14.6985L10.1229 15.8162L10.1235 15.8159L9.56333 14.6985ZM10.2175 14.7566L9.46908 15.7578L9.4692 15.7579L10.2175 14.7566ZM15.941 19.0336L15.1927 20.0349L15.9392 20.5927L16.6869 20.0366L15.941 19.0336ZM21.6928 14.7557L20.947 13.7526L20.9469 13.7527L21.6928 14.7557ZM22.6908 23.1178H21.4408V24.3678H22.6908V23.1178ZM26.2493 22.4303L27.3063 23.0976L27.3065 23.0974L26.2493 22.4303ZM25.4503 8.32297L24.8885 9.4396L24.8886 9.43961L25.4503 8.32297ZM23.3838 8.59918L22.606 7.62065L22.6043 7.62206L23.3838 8.59918ZM23.3663 8.61263L24.109 9.6181L24.1129 9.61518L23.3663 8.61263ZM16.3113 13.8236L15.5687 12.8181L15.5686 12.8182L16.3113 13.8236ZM15.5717 13.8258L16.3085 12.816L16.3084 12.8159L15.5717 13.8258ZM8.65686 8.78188L7.90977 9.78413L7.92022 9.79176L8.65686 8.78188ZM6.41683 8.14765L6.22947 6.91177L6.22944 6.91178L6.41683 8.14765ZM5.65374 8.53599L4.69899 7.72918L4.69897 7.7292L5.65374 8.53599ZM5.90739 22.8585L6.63642 21.8431L6.63629 21.843L5.90739 22.8585ZM6.88458 23.1202L6.77491 21.875L6.77342 21.8752L6.88458 23.1202ZM6.96568 24.3678V23.1178H6.91829L6.87105 23.1214L6.96568 24.3678ZM5.17841 23.874L4.44935 24.8893L4.44942 24.8894L5.17841 23.874ZM4.69899 7.72919L5.65374 8.53601L5.65374 8.536L4.69899 7.72919ZM6.22946 6.91178L6.0421 5.6759L6.0421 5.6759L6.22946 6.91178ZM8.6646 8.78752L15.2011 13.5555L16.6744 11.5357L10.1379 6.76776L8.6646 8.78752ZM16.6804 13.551L23.3579 8.61889L21.8726 6.60796L15.1951 11.5401L16.6804 13.551ZM23.3899 8.59443C24.0514 8.07204 24.8408 8.01631 25.4503 8.32296L26.5739 6.08967C25.0459 5.32095 23.2193 5.54367 21.8405 6.63242L23.3899 8.59443ZM25.4503 8.32297C26.0461 8.62272 26.5796 9.32911 26.5796 10.5588H29.0796C29.0796 8.54905 28.1513 6.88324 26.5739 6.08966L25.4503 8.32297ZM26.5796 10.5588V20.9522H29.0796V10.5588H26.5796ZM26.5796 20.9522C26.5796 21.4728 26.5058 22.024 26.2493 22.4304L28.3634 23.7647C29.0052 22.7479 29.0796 21.6104 29.0796 20.9522H26.5796ZM26.2493 22.4304C26.0267 22.783 25.6102 23.1178 24.6787 23.1178V25.6178C26.3465 25.6178 27.6214 24.9402 28.3634 23.7648L26.2493 22.4304ZM24.6787 23.1178H22.0658V25.6178H24.6787V23.1178ZM22.0658 23.1178C22.4111 23.1178 22.6908 23.3976 22.6908 23.7428H20.1908C20.1908 24.7783 21.0304 25.6178 22.0658 25.6178V23.1178ZM22.6908 23.7428V16.501H20.1908V23.7428H22.6908ZM20.6949 15.4979L15.567 19.3117L17.0589 21.3177L22.1868 17.504L20.6949 15.4979ZM15.5668 19.3119C15.789 19.1465 16.0929 19.1472 16.314 19.3125L14.8176 21.3152C15.4818 21.8114 16.3935 21.8129 17.0592 21.3175L15.5668 19.3119ZM16.3141 19.3125L11.2166 15.5032L9.72005 17.5057L14.8176 21.3151L16.3141 19.3125ZM9.21831 16.5045V20.8982H11.7183V16.5045H9.21831ZM9.21831 20.8982C9.21831 20.5531 9.49806 20.2732 9.84331 20.2732V22.7732C10.8789 22.7732 11.7183 21.9336 11.7183 20.8982H9.21831ZM9.84331 20.2732C10.1886 20.2732 10.4683 20.553 10.4683 20.8982H7.96831C7.96831 21.9336 8.80772 22.7732 9.84331 22.7732V20.2732ZM10.4683 20.8982V15.2572H7.96831V20.8982H10.4683ZM10.4683 15.2572C10.4683 15.4935 10.3349 15.7101 10.1229 15.8162L9.00373 13.5807C8.36885 13.8986 7.96831 14.5476 7.96831 15.2572H10.4683ZM10.1235 15.8159C9.91189 15.922 9.65859 15.8994 9.46908 15.7578L10.9658 13.7554C10.3974 13.3305 9.63771 13.2629 9.0032 13.581L10.1235 15.8159ZM9.4692 15.7579L15.1927 20.0349L16.6892 18.0323L10.9657 13.7553L9.4692 15.7579ZM16.6869 20.0366L22.4388 15.7587L20.9469 13.7527L15.195 18.0306L16.6869 20.0366ZM22.4387 15.7588C22.2495 15.8995 21.9966 15.9219 21.7851 15.8155L22.9079 13.5819C22.274 13.2633 21.5154 13.3299 20.947 13.7526L22.4387 15.7588ZM21.7851 15.8155C21.574 15.7095 21.4408 15.4935 21.4408 15.2572H23.9408C23.9408 14.5484 23.5411 13.9002 22.9079 13.5819L21.7851 15.8155ZM21.4408 15.2572V23.1178H23.9408V15.2572H21.4408ZM22.6908 24.3678H24.6787V21.8678H22.6908V24.3678ZM24.6787 24.3678C25.2916 24.3678 25.8349 24.2577 26.3004 24.0185C26.7773 23.7735 27.0946 23.433 27.3063 23.0976L25.1924 21.763C25.1808 21.7813 25.1779 21.7846 25.1578 21.7949C25.1264 21.811 24.996 21.8678 24.6787 21.8678V24.3678ZM27.3065 23.0974C27.7556 22.3855 27.8296 21.541 27.8296 20.9522H25.3296C25.3296 21.4057 25.2556 21.6629 25.1922 21.7633L27.3065 23.0974ZM27.8296 20.9522V10.5588H25.3296V20.9522H27.8296ZM27.8296 10.5588C27.8296 8.93628 27.0965 7.75188 26.0121 7.20632L24.8886 9.43961C24.9648 9.47796 25.0641 9.55471 25.1504 9.70752C25.237 9.86106 25.3296 10.127 25.3296 10.5588H27.8296ZM26.0121 7.20633C24.9413 6.66758 23.6286 6.80788 22.606 7.62065L24.1616 9.57771C24.4636 9.33768 24.7356 9.36266 24.8885 9.4396L26.0121 7.20633ZM22.6043 7.62206C22.6121 7.61582 22.6177 7.61163 22.6198 7.61007L24.1129 9.61518C24.1268 9.60488 24.1441 9.59171 24.1634 9.5763L22.6043 7.62206ZM22.6237 7.60716L15.5687 12.8181L17.054 14.829L24.109 9.6181L22.6237 7.60716ZM15.5686 12.8182C15.7882 12.656 16.0877 12.655 16.3085 12.816L14.835 14.8356C15.4967 15.3184 16.3953 15.3157 17.0541 14.829L15.5686 12.8182ZM16.3084 12.8159L9.39351 7.772L7.92022 9.79176L14.8351 14.8357L16.3084 12.8159ZM9.40392 7.77968C8.57149 7.15918 7.32539 6.74564 6.22947 6.91177L6.60418 9.38353C6.91512 9.3364 7.50259 9.48053 7.90981 9.78408L9.40392 7.77968ZM6.22944 6.91178C5.66315 6.99764 5.1086 7.24446 4.69899 7.72918L6.60849 9.3428C6.59717 9.35621 6.58462 9.36821 6.57196 9.37817C6.5594 9.38805 6.54932 9.39388 6.5439 9.39666C6.53317 9.40214 6.54797 9.39206 6.60421 9.38353L6.22944 6.91178ZM4.69897 7.7292C4.28922 8.2141 4.07959 8.87176 4.07959 9.67604H6.57959C6.57959 9.4877 6.60377 9.38526 6.61731 9.34284C6.6297 9.30401 6.6337 9.31298 6.60851 9.34279L4.69897 7.7292ZM4.07959 9.67604V21.4363H6.57959V9.67604H4.07959ZM4.07959 21.4363C4.07959 22.6161 4.53074 23.409 5.17848 23.8739L6.63629 21.843C6.64688 21.8506 6.64811 21.8583 6.639 21.8394C6.6264 21.8132 6.57959 21.7005 6.57959 21.4363H4.07959ZM5.17836 23.8738C5.79208 24.3145 6.5095 24.4087 6.99574 24.3653L6.77342 21.8752C6.77991 21.8746 6.77338 21.8756 6.75609 21.8743C6.73956 21.8731 6.71981 21.8704 6.69945 21.8657C6.65469 21.8553 6.63544 21.8424 6.63642 21.8431L5.17836 23.8738ZM6.99425 24.3654C6.97339 24.3672 6.95519 24.3678 6.94008 24.3678V21.8678C6.88791 21.8678 6.83267 21.8699 6.77491 21.875L6.99425 24.3654ZM6.94008 24.3678H8.59331V21.8678H6.94008V24.3678ZM8.59331 24.3678C8.24823 24.3678 7.96831 24.088 7.96831 23.7428H10.4683C10.4683 22.7071 9.62878 21.8678 8.59331 21.8678V24.3678ZM7.96831 23.7428C7.96831 23.3977 8.24806 23.1178 8.59331 23.1178V25.6178C9.62894 25.6178 10.4683 24.7782 10.4683 23.7428H7.96831ZM8.59331 23.1178H6.96568V25.6178H8.59331V23.1178ZM6.87105 23.1214C6.60598 23.1415 6.21648 23.0804 5.90741 22.8585L4.44942 24.8894C5.3445 25.532 6.35728 25.6676 7.06031 25.6142L6.87105 23.1214ZM5.90748 22.8586C5.62566 22.6562 5.32959 22.2638 5.32959 21.4363H2.82959C2.82959 22.9648 3.43317 24.1597 4.44935 24.8893L5.90748 22.8586ZM5.32959 21.4363V9.67604H2.82959V21.4363H5.32959ZM5.32959 9.67604C5.32959 9.08778 5.48025 8.74131 5.65374 8.53601L3.74424 6.92237C3.0969 7.6884 2.82959 8.65828 2.82959 9.67604H5.32959ZM5.65374 8.536C5.82707 8.3309 6.08062 8.19863 6.41683 8.14766L6.0421 5.6759C5.24906 5.79613 4.39194 6.15591 3.74424 6.92238L5.65374 8.536ZM6.41683 8.14766C7.11889 8.04122 8.03453 8.31877 8.65505 8.78049L10.1474 6.7748C9.10437 5.99868 7.53081 5.45021 6.0421 5.6759L6.41683 8.14766Z" fill="white" mask="url(#path-2-inside-1_697_444)"/>
</svg>
