<svg width="20" height="20" viewBox="0 0 20 20" fill="none" xmlns="http://www.w3.org/2000/svg">
<g clip-path="url(#clip0_695_1024)">
<path fill-rule="evenodd" clip-rule="evenodd" d="M10 15C12.7614 15 15 12.7614 15 10C15 7.23857 12.7614 5 10 5C7.23857 5 5 7.23857 5 10C5 12.7614 7.23857 15 10 15ZM10 13.3333C11.8409 13.3333 13.3333 11.8409 13.3333 10C13.3333 8.15905 11.8409 6.66667 10 6.66667C8.15905 6.66667 6.66667 8.15905 6.66667 10C6.66667 11.8409 8.15905 13.3333 10 13.3333Z" fill="white"/>
<path d="M14.9998 4.16666C14.5396 4.16666 14.1665 4.53976 14.1665 4.99999C14.1665 5.46022 14.5396 5.83332 14.9998 5.83332C15.4601 5.83332 15.8332 5.46022 15.8332 4.99999C15.8332 4.53976 15.4601 4.16666 14.9998 4.16666Z" fill="white"/>
<path fill-rule="evenodd" clip-rule="evenodd" d="M1.37846 3.56339C0.833496 4.63295 0.833496 6.03309 0.833496 8.83334V11.1667C0.833496 13.9669 0.833496 15.3671 1.37846 16.4366C1.85783 17.3774 2.62273 18.1423 3.56355 18.6217C4.6331 19.1667 6.03324 19.1667 8.8335 19.1667H11.1668C13.9671 19.1667 15.3672 19.1667 16.4367 18.6217C17.3776 18.1423 18.1425 17.3774 18.6218 16.4366C19.1668 15.3671 19.1668 13.9669 19.1668 11.1667V8.83334C19.1668 6.03309 19.1668 4.63295 18.6218 3.56339C18.1425 2.62258 17.3776 1.85768 16.4367 1.37831C15.3672 0.833344 13.9671 0.833344 11.1668 0.833344H8.8335C6.03324 0.833344 4.6331 0.833344 3.56355 1.37831C2.62273 1.85768 1.85783 2.62258 1.37846 3.56339ZM11.1668 2.50001H8.8335C7.40586 2.50001 6.43537 2.50131 5.68523 2.56259C4.95453 2.62229 4.58086 2.7305 4.3202 2.86332C3.69299 3.1829 3.18305 3.69284 2.86347 4.32004C2.73065 4.58071 2.62245 4.95438 2.56275 5.68508C2.50146 6.43522 2.50016 7.40571 2.50016 8.83334V11.1667C2.50016 12.5943 2.50146 13.5648 2.56275 14.3149C2.62245 15.0457 2.73065 15.4193 2.86347 15.68C3.18305 16.3072 3.69299 16.8171 4.3202 17.1367C4.58086 17.2695 4.95453 17.3778 5.68523 17.4374C6.43537 17.4987 7.40586 17.5 8.8335 17.5H11.1668C12.5945 17.5 13.5649 17.4987 14.3151 17.4374C15.0458 17.3778 15.4195 17.2695 15.6802 17.1367C16.3073 16.8171 16.8172 16.3072 17.1368 15.68C17.2697 15.4193 17.3779 15.0457 17.4376 14.3149C17.4988 13.5648 17.5002 12.5943 17.5002 11.1667V8.83334C17.5002 7.40571 17.4988 6.43522 17.4376 5.68508C17.3779 4.95438 17.2697 4.58071 17.1368 4.32004C16.8172 3.69284 16.3073 3.1829 15.6802 2.86332C15.4195 2.7305 15.0458 2.62229 14.3151 2.56259C13.5649 2.50131 12.5945 2.50001 11.1668 2.50001Z" fill="white"/>
</g>
<defs>
<clipPath id="clip0_695_1024">
<rect width="20" height="20" fill="white"/>
</clipPath>
</defs>
</svg>
