<svg width="30" height="30" viewBox="0 0 30 30" fill="none" xmlns="http://www.w3.org/2000/svg">
<g clip-path="url(#clip0_201_528)">
<path d="M6.25 27.5C5.91848 27.5 5.60054 27.3683 5.36612 27.1339C5.1317 26.8995 5 26.5815 5 26.25V3.75C5 3.41848 5.1317 3.10054 5.36612 2.86612C5.60054 2.6317 5.91848 2.5 6.25 2.5H23.75C24.0815 2.5 24.3995 2.6317 24.6339 2.86612C24.8683 3.10054 25 3.41848 25 3.75V7.5H22.5V5H7.5V25H22.5V22.5H25V26.25C25 26.5815 24.8683 26.8995 24.6339 27.1339C24.3995 27.3683 24.0815 27.5 23.75 27.5H6.25ZM22.5 20V16.25H13.75V13.75H22.5V10L28.75 15L22.5 20Z" fill="black"/>
</g>
<defs>
<clipPath id="clip0_201_528">
<rect width="30" height="30" fill="white"/>
</clipPath>
</defs>
</svg>
