<svg xmlns="http://www.w3.org/2000/svg" version="1.1" xmlns:xlink="http://www.w3.org/1999/xlink" xmlns:svgjs="http://svgjs.dev/svgjs" width="2000" height="938" viewBox="0 0 2000 938"><g transform="matrix(1,0,0,1,0.21333333333336668,0.8873693181820386)"><svg viewBox="0 0 375 176" data-background-color="#ffffff" preserveAspectRatio="xMidYMid meet" height="938" width="2000" xmlns="http://www.w3.org/2000/svg" xmlns:xlink="http://www.w3.org/1999/xlink"><g id="tight-bounds" transform="matrix(1,0,0,1,-0.03976000000000113,-0.16633000000004472)"><svg viewBox="0 0 375.07953 176.33250000000004" height="176.33250000000004" width="375.07953"><g><svg></svg></g><g><svg viewBox="0 0 375.07953 176.33250000000004" height="176.33250000000004" width="375.07953"><g transform="matrix(1,0,0,1,-10.22024,-39.672169999999994)"><path d="M10.22 207.528v-167.856h375.08v167.856l-19.463 0 0-5.556h13.907v-156.744h-363.968v156.744h13.907l0 5.556z" fill="#264f0b" fill-rule="nonzero" stroke="none" stroke-width="1" stroke-linecap="butt" stroke-linejoin="miter" stroke-miterlimit="10" stroke-dasharray="" stroke-dashoffset="0" font-family="none" font-weight="none" font-size="none" text-anchor="none" style="mix-blend-mode: normal" data-fill-palette-color="tertiary"></path><g><path d="M54.081 194.559v0c1.407 0 2.807 0.276 4.2 0.828v0l-0.565 1.532c-1.407-0.484-2.637-0.726-3.688-0.726v0c-0.87 0-1.676 0.172-2.419 0.517-0.742 0.341-1.358 0.802-1.848 1.381-0.49 0.576-0.873 1.235-1.149 1.977-0.276 0.742-0.414 1.52-0.414 2.334v0c0 0.84 0.147 1.639 0.441 2.396 0.294 0.757 0.705 1.421 1.233 1.991 0.532 0.567 1.191 1.018 1.978 1.354 0.784 0.333 1.644 0.499 2.579 0.499v0c1.116 0 2.28-0.218 3.492-0.654v0l0.565 1.371c-1.514 0.653-3.023 0.98-4.525 0.98v0c-0.926 0-1.796-0.135-2.61-0.405-0.811-0.267-1.519-0.641-2.125-1.122-0.606-0.484-1.125-1.056-1.558-1.715-0.436-0.659-0.765-1.385-0.985-2.178-0.223-0.796-0.334-1.632-0.334-2.508v0c0-1.485 0.31-2.818 0.931-4 0.621-1.182 1.522-2.119 2.704-2.81 1.182-0.695 2.548-1.042 4.097-1.042zM62.348 199.378l0.334 0.806c0.909-0.674 1.909-1.011 3.002-1.011v0c0.754 0 1.44 0.141 2.058 0.423v0l-0.544 1.425c-0.567-0.22-1.155-0.33-1.763-0.329v0c-0.906 0-1.758 0.251-2.557 0.753v0 8.676h-1.782v-10.743zM74.427 199.173v0c0.523 0 0.992 0.062 1.408 0.187 0.419 0.128 0.765 0.29 1.037 0.486 0.276 0.196 0.514 0.451 0.713 0.766 0.199 0.315 0.352 0.619 0.459 0.913 0.104 0.294 0.186 0.647 0.245 1.06 0.056 0.413 0.092 0.772 0.107 1.078 0.015 0.303 0.022 0.662 0.022 1.078v0 0.846h-7.385c0 0.392 0.089 0.781 0.267 1.167 0.178 0.389 0.429 0.745 0.753 1.069 0.321 0.321 0.744 0.583 1.27 0.788 0.526 0.202 1.108 0.303 1.745 0.303v0c0.754 0 1.569-0.131 2.446-0.392v0l0.316 1.22c-1.167 0.398-2.312 0.597-3.434 0.597v0c-0.79 0-1.492-0.105-2.107-0.316-0.612-0.211-1.105-0.484-1.479-0.82-0.371-0.339-0.677-0.744-0.917-1.216-0.241-0.469-0.405-0.938-0.494-1.407-0.092-0.466-0.138-0.961-0.139-1.483v0c0-0.805 0.098-1.541 0.294-2.209 0.196-0.665 0.462-1.225 0.798-1.679 0.333-0.451 0.722-0.833 1.167-1.145 0.445-0.312 0.913-0.539 1.403-0.682 0.49-0.14 0.992-0.209 1.505-0.209zM74.049 200.714v0c-0.638 0-1.188 0.177-1.648 0.53-0.46 0.35-0.796 0.787-1.007 1.31-0.211 0.523-0.316 1.084-0.316 1.683v0h5.612c0-2.349-0.88-3.523-2.641-3.523zM85.344 199.173v0c0.799 0 1.476 0.092 2.031 0.276 0.552 0.184 0.98 0.454 1.283 0.811 0.3 0.353 0.515 0.748 0.645 1.185 0.131 0.434 0.196 0.934 0.196 1.501v0 7.175h-1.26l-0.414-0.98c-0.876 0.799-1.884 1.198-3.025 1.198v0c-1.016 0-1.874-0.306-2.574-0.917-0.704-0.615-1.056-1.332-1.056-2.152v0c0-0.434 0.079-0.824 0.237-1.171 0.16-0.35 0.392-0.641 0.694-0.873 0.3-0.232 0.641-0.429 1.025-0.592 0.386-0.163 0.834-0.288 1.345-0.374 0.511-0.086 1.023-0.147 1.536-0.183 0.517-0.039 1.082-0.058 1.697-0.058v0-0.846c0-0.246-0.009-0.46-0.026-0.642-0.018-0.181-0.077-0.399-0.178-0.654-0.104-0.252-0.242-0.46-0.415-0.624-0.175-0.163-0.436-0.304-0.784-0.423-0.347-0.119-0.76-0.178-1.238-0.178v0c-0.739 0-1.697 0.162-2.873 0.485v0l-0.334-1.305c1.188-0.439 2.35-0.659 3.488-0.659zM87.704 207.836v-2.467h-0.663c-0.413 0-0.772 0.007-1.078 0.022-0.303 0.015-0.659 0.056-1.069 0.125-0.41 0.068-0.745 0.165-1.007 0.289-0.261 0.122-0.484 0.301-0.668 0.539-0.184 0.235-0.276 0.515-0.276 0.842v0c0 0.457 0.23 0.863 0.69 1.216 0.46 0.356 1.01 0.534 1.648 0.534v0c0.935 0 1.743-0.367 2.423-1.1zM98.871 208.718l0.253 1.216c-1.051 0.27-1.871 0.405-2.458 0.405-0.588 0-1.085-0.095-1.492-0.285-0.404-0.187-0.711-0.454-0.922-0.802-0.211-0.35-0.362-0.726-0.455-1.126-0.089-0.401-0.134-0.863-0.133-1.386v0-5.959h-1.448v-1.403h1.448v-3.078h1.781v3.078h3.274v1.403h-3.274v5.937c0 1.485 0.588 2.227 1.764 2.227v0c0.211 0 0.765-0.076 1.662-0.227zM106.46 199.173v0c0.523 0 0.993 0.062 1.412 0.187 0.416 0.128 0.762 0.29 1.038 0.486 0.276 0.196 0.514 0.451 0.712 0.766 0.199 0.315 0.35 0.619 0.455 0.913 0.107 0.294 0.189 0.647 0.245 1.06 0.059 0.413 0.097 0.772 0.111 1.078 0.012 0.303 0.018 0.662 0.018 1.078v0 0.846h-7.38c0 0.392 0.089 0.781 0.267 1.167 0.175 0.389 0.425 0.745 0.748 1.069 0.324 0.321 0.748 0.583 1.274 0.788 0.526 0.202 1.108 0.303 1.746 0.303v0c0.751 0 1.566-0.131 2.445-0.392v0l0.316 1.22c-1.167 0.398-2.313 0.597-3.438 0.597v0c-0.79 0-1.491-0.105-2.102-0.316-0.615-0.211-1.108-0.484-1.479-0.82-0.374-0.339-0.681-0.744-0.922-1.216-0.238-0.469-0.402-0.938-0.494-1.407-0.089-0.466-0.134-0.961-0.134-1.483v0c0-0.805 0.098-1.541 0.294-2.209 0.196-0.665 0.46-1.225 0.793-1.679 0.333-0.451 0.722-0.833 1.167-1.145 0.448-0.312 0.916-0.539 1.403-0.682 0.49-0.14 0.992-0.209 1.505-0.209zM106.082 200.714v0c-0.638 0-1.188 0.177-1.648 0.53-0.46 0.35-0.796 0.787-1.007 1.31-0.208 0.523-0.312 1.084-0.312 1.683v0h5.608c0-2.349-0.88-3.523-2.641-3.523zM125.372 208.718l0.249 1.216c-1.051 0.27-1.871 0.405-2.458 0.405-0.585 0-1.081-0.095-1.488-0.285-0.407-0.187-0.716-0.454-0.927-0.802-0.208-0.35-0.358-0.726-0.449-1.126-0.089-0.401-0.134-0.863-0.134-1.386v0-5.959h-1.448v-1.403h1.448v-3.078h1.782v3.078h3.273v1.403h-3.273v5.937c0 1.485 0.588 2.227 1.763 2.227v0c0.208 0 0.762-0.076 1.662-0.227zM133.104 200.768v0c-0.849 0-1.807 0.279-2.873 0.837v0 8.516h-1.782v-16.431h1.782v6.503c1.271-0.674 2.46-1.011 3.568-1.011v0c0.478 0 0.907 0.061 1.287 0.183 0.383 0.125 0.698 0.279 0.944 0.463 0.246 0.184 0.457 0.423 0.633 0.717 0.178 0.294 0.313 0.57 0.405 0.828 0.089 0.258 0.157 0.564 0.205 0.918 0.048 0.356 0.077 0.646 0.089 0.868 0.009 0.226 0.013 0.491 0.013 0.798v0 6.164h-1.826v-6.494c0-1.906-0.815-2.859-2.445-2.859zM145.913 199.173v0c0.523 0 0.992 0.062 1.408 0.187 0.416 0.128 0.762 0.29 1.038 0.486 0.276 0.196 0.514 0.451 0.712 0.766 0.199 0.315 0.352 0.619 0.459 0.913 0.104 0.294 0.186 0.647 0.245 1.06 0.056 0.413 0.092 0.772 0.107 1.078 0.015 0.303 0.022 0.662 0.022 1.078v0 0.846h-7.384c0 0.392 0.089 0.781 0.267 1.167 0.178 0.389 0.428 0.745 0.748 1.069 0.324 0.321 0.748 0.583 1.274 0.788 0.526 0.202 1.108 0.303 1.746 0.303v0c0.754 0 1.569-0.131 2.445-0.392v0l0.316 1.22c-1.167 0.398-2.312 0.597-3.434 0.597v0c-0.793 0-1.495-0.105-2.106-0.316-0.612-0.211-1.105-0.484-1.479-0.82-0.374-0.339-0.68-0.744-0.918-1.216-0.241-0.469-0.405-0.938-0.494-1.407-0.092-0.466-0.138-0.961-0.138-1.483v0c0-0.805 0.098-1.541 0.294-2.209 0.196-0.665 0.46-1.225 0.793-1.679 0.336-0.451 0.726-0.833 1.171-1.145 0.445-0.312 0.913-0.539 1.403-0.682 0.49-0.14 0.992-0.209 1.505-0.209zM145.53 200.714v0c-0.635 0-1.183 0.177-1.643 0.53-0.46 0.35-0.796 0.787-1.007 1.31-0.211 0.523-0.316 1.084-0.316 1.683v0h5.612c0-2.349-0.882-3.523-2.646-3.523zM163.792 199.16v0c0.855 0 1.844 0.287 2.966 0.859v0l0.227-0.641h1.252v11.416c0 0.22-0.007 0.431-0.022 0.632-0.015 0.202-0.058 0.488-0.13 0.86-0.071 0.368-0.172 0.705-0.303 1.011-0.131 0.303-0.328 0.631-0.592 0.984-0.267 0.35-0.579 0.646-0.935 0.886-0.359 0.238-0.824 0.436-1.394 0.597-0.57 0.16-1.206 0.241-1.907 0.241v0c-1.111 0-2.22-0.232-3.327-0.695v0l0.499-1.296c0.891 0.333 1.756 0.499 2.597 0.499v0c2.488 0 3.732-1.373 3.732-4.12v0-0.793c-0.935 0.493-1.881 0.739-2.837 0.739v0c-0.466 0-0.92-0.059-1.363-0.178-0.442-0.122-0.874-0.322-1.296-0.601-0.425-0.279-0.794-0.627-1.109-1.042-0.318-0.416-0.572-0.946-0.762-1.591-0.193-0.641-0.29-1.357-0.289-2.146v0c0-0.831 0.116-1.583 0.347-2.254 0.232-0.671 0.526-1.21 0.882-1.617 0.353-0.407 0.762-0.747 1.225-1.02 0.46-0.276 0.9-0.468 1.318-0.574 0.422-0.104 0.828-0.156 1.221-0.156zM163.899 200.607v0c-1.007 0-1.819 0.362-2.437 1.087-0.615 0.725-0.922 1.685-0.922 2.882v0c0 0.796 0.126 1.513 0.379 2.151 0.252 0.638 0.655 1.155 1.207 1.55 0.552 0.395 1.216 0.592 1.991 0.592v0c0.79 0 1.569-0.206 2.338-0.619v0-7.037c-0.995-0.404-1.847-0.606-2.556-0.606zM175.706 199.173v0c0.799 0 1.476 0.092 2.031 0.276 0.552 0.184 0.98 0.454 1.283 0.811 0.3 0.353 0.515 0.748 0.646 1.185 0.131 0.434 0.196 0.934 0.196 1.501v0 7.175h-1.261l-0.414-0.98c-0.876 0.799-1.884 1.198-3.024 1.198v0c-1.016 0-1.874-0.306-2.575-0.917-0.704-0.615-1.056-1.332-1.055-2.152v0c0-0.434 0.08-0.824 0.24-1.171 0.157-0.35 0.388-0.641 0.691-0.873 0.3-0.232 0.641-0.429 1.024-0.592 0.386-0.163 0.834-0.288 1.345-0.374 0.511-0.086 1.023-0.147 1.537-0.183 0.517-0.039 1.082-0.058 1.697-0.058v0-0.846c0-0.246-0.009-0.46-0.027-0.642-0.018-0.181-0.077-0.399-0.178-0.654-0.101-0.252-0.239-0.46-0.414-0.624-0.175-0.163-0.436-0.304-0.784-0.423-0.347-0.119-0.76-0.178-1.238-0.178v0c-0.739 0-1.697 0.162-2.873 0.485v0l-0.334-1.305c1.188-0.439 2.35-0.659 3.487-0.659zM178.067 207.836v-2.467h-0.664c-0.413 0-0.771 0.007-1.073 0.022-0.306 0.015-0.664 0.056-1.074 0.125-0.41 0.068-0.745 0.165-1.006 0.289-0.261 0.122-0.484 0.301-0.668 0.539-0.184 0.235-0.276 0.515-0.277 0.842v0c0 0.457 0.23 0.863 0.691 1.216 0.46 0.356 1.01 0.534 1.648 0.534v0c0.935 0 1.743-0.367 2.423-1.1zM188.07 200.812v0c-0.624 0-1.461 0.276-2.512 0.829v0 8.48h-1.781v-10.743h1.251l0.379 0.891c1.298-0.73 2.421-1.096 3.372-1.096v0c1.096 0 1.955 0.398 2.578 1.194v0c1.419-0.79 2.69-1.185 3.813-1.185v0c0.546 0 1.026 0.074 1.439 0.223 0.413 0.148 0.748 0.352 1.006 0.61 0.255 0.255 0.465 0.578 0.628 0.966 0.163 0.389 0.276 0.799 0.339 1.23 0.062 0.431 0.094 0.918 0.093 1.461v0 6.449h-1.786v-6.57c0-0.131-0.003-0.251-0.009-0.36-0.009-0.113-0.027-0.269-0.053-0.468-0.03-0.202-0.074-0.38-0.134-0.535-0.056-0.154-0.141-0.324-0.254-0.507-0.113-0.181-0.249-0.331-0.409-0.45-0.157-0.119-0.359-0.218-0.606-0.299-0.246-0.08-0.523-0.12-0.829-0.12v0c-0.668 0-1.548 0.284-2.641 0.851v0c0.101 0.428 0.151 1.122 0.152 2.084v0 6.374h-1.782v-6.61c0-0.19-0.007-0.37-0.022-0.539-0.015-0.172-0.065-0.399-0.152-0.681-0.089-0.282-0.206-0.523-0.351-0.722-0.143-0.199-0.365-0.376-0.669-0.53-0.3-0.151-0.653-0.227-1.06-0.227zM207.254 199.173v0c0.523 0 0.992 0.062 1.407 0.187 0.416 0.128 0.762 0.29 1.038 0.486 0.276 0.196 0.514 0.451 0.713 0.766 0.199 0.315 0.352 0.619 0.458 0.913 0.104 0.294 0.186 0.647 0.245 1.06 0.056 0.413 0.092 0.772 0.107 1.078 0.015 0.303 0.022 0.662 0.022 1.078v0 0.846h-7.384c0 0.392 0.089 0.781 0.267 1.167 0.178 0.389 0.428 0.745 0.748 1.069 0.324 0.321 0.748 0.583 1.274 0.788 0.526 0.202 1.108 0.303 1.746 0.303v0c0.754 0 1.569-0.131 2.445-0.392v0l0.317 1.22c-1.167 0.398-2.312 0.597-3.435 0.597v0c-0.793 0-1.495-0.105-2.106-0.316-0.612-0.211-1.105-0.484-1.479-0.82-0.374-0.339-0.68-0.744-0.917-1.216-0.241-0.469-0.405-0.938-0.495-1.407-0.092-0.466-0.138-0.961-0.138-1.483v0c0-0.805 0.098-1.541 0.294-2.209 0.196-0.665 0.46-1.225 0.793-1.679 0.336-0.451 0.726-0.833 1.171-1.145 0.445-0.312 0.913-0.539 1.403-0.682 0.49-0.14 0.992-0.209 1.506-0.209zM206.871 200.714v0c-0.635 0-1.183 0.177-1.644 0.53-0.46 0.35-0.796 0.787-1.007 1.31-0.211 0.523-0.316 1.084-0.316 1.683v0h5.612c0-2.349-0.882-3.523-2.645-3.523zM213.115 212.513l1.719-4.24h1.956l-1.72 4.24zM227.012 210.121v-16.431h1.781v6.2c0.935-0.487 1.893-0.73 2.873-0.73v0c0.434 0 0.861 0.052 1.283 0.156 0.422 0.107 0.843 0.292 1.265 0.556 0.425 0.264 0.797 0.595 1.118 0.994 0.318 0.401 0.576 0.923 0.775 1.567 0.199 0.644 0.298 1.373 0.298 2.187v0c0 1.767-0.469 3.162-1.408 4.187-0.938 1.021-2.154 1.532-3.647 1.532v0c-0.98 0-1.94-0.239-2.882-0.717v0l-0.218 0.499zM231.056 200.638v0c-0.775 0-1.529 0.192-2.263 0.575v0 7.224c0.778 0.333 1.543 0.499 2.294 0.499v0c0.336 0 0.659-0.037 0.971-0.111 0.312-0.071 0.628-0.203 0.949-0.397 0.324-0.19 0.606-0.431 0.846-0.721 0.238-0.291 0.432-0.676 0.583-1.154 0.154-0.478 0.232-1.018 0.232-1.621v0c0-0.68-0.08-1.283-0.241-1.808-0.16-0.526-0.364-0.941-0.61-1.247-0.246-0.303-0.536-0.552-0.868-0.749-0.333-0.196-0.652-0.327-0.958-0.392-0.303-0.065-0.615-0.098-0.935-0.098zM244.386 199.173v0c0.523 0 0.992 0.062 1.408 0.187 0.419 0.128 0.766 0.29 1.042 0.486 0.273 0.196 0.511 0.451 0.713 0.766 0.199 0.315 0.35 0.619 0.454 0.913 0.104 0.294 0.186 0.647 0.245 1.06 0.059 0.413 0.095 0.772 0.107 1.078 0.015 0.303 0.022 0.662 0.022 1.078v0 0.846h-7.38c0 0.392 0.088 0.781 0.263 1.167 0.178 0.389 0.429 0.745 0.753 1.069 0.321 0.321 0.744 0.583 1.269 0.788 0.526 0.202 1.108 0.303 1.746 0.303v0c0.754 0 1.571-0.131 2.45-0.392v0l0.311 1.22c-1.167 0.398-2.312 0.597-3.434 0.597v0c-0.79 0-1.491-0.105-2.102-0.316-0.615-0.211-1.108-0.484-1.479-0.82-0.374-0.339-0.681-0.744-0.922-1.216-0.238-0.469-0.402-0.938-0.494-1.407-0.089-0.466-0.134-0.961-0.134-1.483v0c0-0.805 0.098-1.541 0.294-2.209 0.193-0.665 0.457-1.225 0.793-1.679 0.333-0.451 0.722-0.833 1.167-1.145 0.445-0.312 0.913-0.539 1.403-0.682 0.49-0.14 0.992-0.209 1.505-0.209zM244.008 200.714v0c-0.638 0-1.188 0.177-1.648 0.53-0.46 0.35-0.796 0.787-1.007 1.31-0.211 0.523-0.316 1.084-0.316 1.683v0h5.612c0-2.349-0.88-3.523-2.641-3.523zM263.298 208.718l0.249 1.216c-1.051 0.27-1.871 0.405-2.458 0.405-0.585 0-1.081-0.095-1.488-0.285-0.407-0.187-0.716-0.454-0.926-0.802-0.211-0.35-0.361-0.726-0.45-1.126-0.092-0.401-0.138-0.863-0.138-1.386v0-5.959h-1.443v-1.403h1.443v-3.078h1.786v3.078h3.274v1.403h-3.274v5.937c0 1.485 0.586 2.227 1.759 2.227v0c0.211 0 0.766-0.076 1.666-0.227zM271.03 200.768v0c-0.849 0-1.807 0.279-2.873 0.837v0 8.516h-1.781v-16.431h1.781v6.503c1.268-0.674 2.457-1.011 3.568-1.011v0c0.478 0 0.907 0.061 1.287 0.183 0.38 0.125 0.693 0.279 0.94 0.463 0.246 0.184 0.459 0.423 0.637 0.717 0.178 0.294 0.313 0.57 0.405 0.828 0.089 0.258 0.157 0.564 0.205 0.918 0.048 0.356 0.077 0.646 0.089 0.868 0.009 0.226 0.013 0.491 0.014 0.798v0 6.164h-1.827v-6.494c0-1.906-0.815-2.859-2.445-2.859zM283.84 199.173v0c0.52 0 0.989 0.062 1.407 0.187 0.416 0.128 0.762 0.29 1.038 0.486 0.276 0.196 0.514 0.451 0.713 0.766 0.199 0.315 0.35 0.619 0.454 0.913 0.107 0.294 0.189 0.647 0.245 1.06 0.059 0.413 0.097 0.772 0.111 1.078 0.015 0.303 0.022 0.662 0.023 1.078v0 0.846h-7.385c0 0.392 0.089 0.781 0.267 1.167 0.178 0.389 0.428 0.745 0.748 1.069 0.324 0.321 0.748 0.583 1.274 0.788 0.526 0.202 1.108 0.303 1.746 0.303v0c0.754 0 1.569-0.131 2.445-0.392v0l0.317 1.22c-1.167 0.398-2.313 0.597-3.439 0.597v0c-0.79 0-1.491-0.105-2.102-0.316-0.612-0.211-1.105-0.484-1.479-0.82-0.374-0.339-0.68-0.744-0.917-1.216-0.241-0.469-0.405-0.938-0.495-1.407-0.092-0.466-0.138-0.961-0.138-1.483v0c0-0.805 0.098-1.541 0.294-2.209 0.196-0.665 0.46-1.225 0.793-1.679 0.333-0.451 0.723-0.833 1.171-1.145 0.445-0.312 0.913-0.539 1.403-0.682 0.487-0.14 0.989-0.209 1.506-0.209zM283.457 200.714v0c-0.638 0-1.188 0.177-1.648 0.53-0.46 0.35-0.794 0.787-1.002 1.31-0.211 0.523-0.316 1.084-0.317 1.683v0h5.612c0-2.349-0.882-3.523-2.645-3.523zM301.714 199.16v0c0.855 0 1.845 0.287 2.97 0.859v0l0.228-0.641h1.251v11.416c0 0.22-0.007 0.431-0.022 0.632-0.015 0.202-0.058 0.488-0.129 0.86-0.074 0.368-0.177 0.705-0.308 1.011-0.131 0.303-0.328 0.631-0.592 0.984-0.264 0.35-0.576 0.646-0.935 0.886-0.356 0.238-0.82 0.436-1.39 0.597-0.57 0.16-1.207 0.241-1.911 0.241v0c-1.108 0-2.217-0.232-3.327-0.695v0l0.503-1.296c0.891 0.333 1.756 0.499 2.597 0.499v0c2.488 0 3.732-1.373 3.733-4.12v0-0.793c-0.935 0.493-1.883 0.739-2.842 0.739v0c-0.463 0-0.916-0.059-1.359-0.178-0.442-0.122-0.876-0.322-1.3-0.601-0.422-0.279-0.791-0.627-1.109-1.042-0.315-0.416-0.569-0.946-0.762-1.591-0.19-0.641-0.285-1.357-0.285-2.146v0c0-0.831 0.116-1.583 0.348-2.254 0.232-0.671 0.526-1.21 0.881-1.617 0.353-0.407 0.76-0.747 1.221-1.02 0.46-0.276 0.901-0.468 1.323-0.574 0.422-0.104 0.827-0.156 1.216-0.156zM301.825 200.607v0c-1.01 0-1.822 0.362-2.436 1.087-0.618 0.725-0.926 1.685-0.927 2.882v0c0 0.796 0.128 1.513 0.383 2.151 0.252 0.638 0.655 1.155 1.207 1.55 0.549 0.395 1.213 0.592 1.991 0.592v0c0.79 0 1.569-0.206 2.339-0.619v0-7.037c-0.995-0.404-1.847-0.606-2.557-0.606zM313.632 199.173v0c0.799 0 1.474 0.092 2.027 0.276 0.555 0.184 0.984 0.454 1.287 0.811 0.3 0.353 0.515 0.748 0.646 1.185 0.131 0.434 0.196 0.934 0.196 1.501v0 7.175h-1.26l-0.415-0.98c-0.879 0.799-1.887 1.198-3.024 1.198v0c-1.016 0-1.875-0.306-2.579-0.917-0.701-0.615-1.051-1.332-1.051-2.152v0c0-0.434 0.079-0.824 0.236-1.171 0.16-0.35 0.39-0.641 0.691-0.873 0.303-0.232 0.646-0.429 1.028-0.592 0.386-0.163 0.834-0.288 1.346-0.374 0.511-0.086 1.023-0.147 1.536-0.183 0.514-0.039 1.079-0.058 1.697-0.058v0-0.846c0-0.246-0.009-0.46-0.027-0.642-0.018-0.181-0.077-0.399-0.178-0.654-0.104-0.252-0.242-0.46-0.414-0.624-0.175-0.163-0.436-0.304-0.784-0.423-0.347-0.119-0.76-0.178-1.238-0.178v0c-0.739 0-1.697 0.162-2.873 0.485v0l-0.338-1.305c1.191-0.439 2.355-0.659 3.491-0.659zM315.993 207.836v-2.467h-0.664c-0.413 0-0.772 0.007-1.077 0.022-0.303 0.015-0.659 0.056-1.069 0.125-0.41 0.068-0.745 0.165-1.007 0.289-0.261 0.122-0.484 0.301-0.668 0.539-0.184 0.235-0.276 0.515-0.276 0.842v0c0 0.457 0.23 0.863 0.69 1.216 0.46 0.356 1.01 0.534 1.648 0.534v0c0.932 0 1.74-0.367 2.423-1.1zM325.997 200.812v0c-0.624 0-1.461 0.276-2.512 0.829v0 8.48h-1.782v-10.743h1.247l0.383 0.891c1.298-0.73 2.421-1.096 3.372-1.096v0c1.093 0 1.951 0.398 2.574 1.194v0c1.422-0.79 2.695-1.185 3.817-1.185v0c0.543 0 1.023 0.074 1.439 0.223 0.413 0.148 0.747 0.352 1.002 0.61 0.258 0.255 0.469 0.578 0.633 0.966 0.163 0.389 0.276 0.799 0.338 1.23 0.059 0.431 0.089 0.918 0.089 1.461v0 6.449h-1.781v-6.57c0-0.131-0.003-0.251-0.009-0.36-0.009-0.113-0.028-0.269-0.058-0.468-0.027-0.202-0.07-0.38-0.129-0.535-0.056-0.154-0.141-0.324-0.254-0.507-0.113-0.181-0.249-0.331-0.41-0.45-0.16-0.119-0.364-0.218-0.61-0.299-0.246-0.08-0.521-0.12-0.824-0.12v0c-0.668 0-1.548 0.284-2.641 0.851v0c0.101 0.428 0.151 1.122 0.151 2.084v0 6.374h-1.786v-6.61c0-0.19-0.006-0.37-0.018-0.539-0.015-0.172-0.067-0.399-0.156-0.681-0.086-0.282-0.202-0.523-0.347-0.722-0.145-0.199-0.368-0.376-0.668-0.53-0.3-0.151-0.653-0.227-1.06-0.227zM345.18 199.173v0c0.52 0 0.989 0.062 1.407 0.187 0.416 0.128 0.762 0.29 1.038 0.486 0.276 0.196 0.514 0.451 0.713 0.766 0.199 0.315 0.35 0.619 0.454 0.913 0.107 0.294 0.189 0.647 0.245 1.06 0.059 0.413 0.097 0.772 0.112 1.078 0.015 0.303 0.022 0.662 0.022 1.078v0 0.846h-7.385c0 0.392 0.089 0.781 0.267 1.167 0.178 0.389 0.428 0.745 0.749 1.069 0.324 0.321 0.748 0.583 1.273 0.788 0.526 0.202 1.108 0.303 1.746 0.303v0c0.754 0 1.569-0.131 2.446-0.392v0l0.316 1.22c-1.167 0.398-2.313 0.597-3.439 0.597v0c-0.79 0-1.491-0.105-2.102-0.316-0.612-0.211-1.105-0.484-1.479-0.82-0.374-0.339-0.68-0.744-0.917-1.216-0.241-0.469-0.405-0.938-0.495-1.407-0.092-0.466-0.138-0.961-0.138-1.483v0c0-0.805 0.098-1.541 0.294-2.209 0.196-0.665 0.46-1.225 0.793-1.679 0.333-0.451 0.723-0.833 1.172-1.145 0.445-0.312 0.913-0.539 1.403-0.682 0.487-0.14 0.989-0.209 1.505-0.209zM344.797 200.714v0c-0.638 0-1.188 0.177-1.648 0.53-0.46 0.35-0.794 0.787-1.002 1.31-0.211 0.523-0.316 1.084-0.316 1.683v0h5.607c0-2.349-0.88-3.523-2.641-3.523z" fill="#264f0b" fill-rule="nonzero" stroke="none" stroke-width="1" stroke-linecap="butt" stroke-linejoin="miter" stroke-miterlimit="10" stroke-dasharray="" stroke-dashoffset="0" font-family="none" font-weight="none" font-size="none" text-anchor="none" style="mix-blend-mode: normal" data-fill-palette-color="secondary" id="text-1"></path></g></g><g transform="matrix(1,0,0,1,29.33176499999999,57.36469247787612)"><svg viewBox="0 0 316.416 61.603115044247794" height="61.603115044247794" width="316.416"><g><svg viewBox="0 0 316.416 61.603115044247794" height="61.603115044247794" width="316.416"><g><svg viewBox="0 0 316.416 61.603115044247794" height="61.603115044247794" width="316.416"><g id="textblocktransform"><svg viewBox="0 0 316.416 61.603115044247794" height="61.603115044247794" width="316.416" id="textblock"><g><svg viewBox="0 0 316.416 61.603115044247794" height="61.603115044247794" width="316.416"><g transform="matrix(1,0,0,1,0,0)"><svg width="316.416" viewBox="4.4 -36.86 192.6 37.5" height="61.603115044247794" data-palette-color="#264f0b"><path d="M17.54 0L4.4 0 4.4-36.36 17.12-36.36Q20.92-36.36 23.38-35.06 25.85-33.75 27.06-31.56 28.27-29.37 28.27-26.7L28.27-26.7Q28.27-24.36 27.44-22.83 26.62-21.31 25.28-20.42 23.93-19.53 22.37-19.11L22.37-19.11 22.37-18.75Q24.04-18.64 25.73-17.58 27.41-16.51 28.55-14.52 29.69-12.54 29.69-9.66L29.69-9.66Q29.69-6.92 28.44-4.74 27.2-2.56 24.52-1.28 21.84 0 17.54 0L17.54 0ZM8.81-16.55L8.81-3.91 17.54-3.91Q21.86-3.91 23.68-5.58 25.5-7.26 25.5-9.66L25.5-9.66Q25.5-11.51 24.56-13.08 23.62-14.65 21.88-15.6 20.13-16.55 17.76-16.55L17.76-16.55 8.81-16.55ZM8.81-32.46L8.81-20.38 16.97-20.38Q18.96-20.38 20.57-21.16 22.18-21.95 23.13-23.37 24.08-24.79 24.08-26.7L24.08-26.7Q24.08-29.1 22.41-30.78 20.74-32.46 17.12-32.46L17.12-32.46 8.81-32.46ZM47.8 0.57L47.8 0.57Q43.85 0.57 41-1.18 38.15-2.93 36.62-6.08 35.08-9.23 35.08-13.42L35.08-13.42Q35.08-17.61 36.62-20.82 38.15-24.02 40.92-25.83 43.68-27.63 47.37-27.63L47.37-27.63Q49.5-27.63 51.58-26.92 53.66-26.21 55.36-24.62 57.06-23.03 58.08-20.42 59.09-17.81 59.09-13.99L59.09-13.99 59.09-12.22 38.07-12.22 38.07-15.84 54.83-15.84Q54.83-18.15 53.91-19.96 53-21.77 51.32-22.82 49.64-23.86 47.37-23.86L47.37-23.86Q44.87-23.86 43.05-22.63 41.23-21.4 40.25-19.42 39.27-17.45 39.27-15.2L39.27-15.2 39.27-12.78Q39.27-9.69 40.35-7.56 41.42-5.42 43.34-4.31 45.26-3.2 47.8-3.2L47.8-3.2Q49.45-3.2 50.79-3.67 52.13-4.14 53.1-5.09 54.08-6.04 54.61-7.46L54.61-7.46 58.66-6.32Q58.02-4.26 56.51-2.71 55-1.15 52.79-0.29 50.57 0.57 47.8 0.57ZM95.45-25L90.9-25Q90.32-26.79 89.37-28.22 88.42-29.65 87.11-30.66 85.81-31.68 84.16-32.21 82.51-32.74 80.53-32.74L80.53-32.74Q77.3-32.74 74.66-31.07 72.01-29.4 70.45-26.15 68.89-22.9 68.89-18.18L68.89-18.18Q68.89-13.46 70.47-10.21 72.05-6.96 74.75-5.29 77.45-3.62 80.82-3.62L80.82-3.62Q83.94-3.62 86.33-4.96 88.72-6.3 90.06-8.76 91.4-11.22 91.4-14.56L91.4-14.56 92.75-14.28 81.81-14.28 81.81-18.18 95.66-18.18 95.66-14.28Q95.66-9.78 93.75-6.46 91.85-3.14 88.5-1.32 85.15 0.5 80.82 0.5L80.82 0.5Q75.99 0.5 72.34-1.78 68.69-4.05 66.66-8.24 64.63-12.43 64.63-18.18L64.63-18.18Q64.63-22.5 65.79-25.95 66.95-29.4 69.08-31.84 71.21-34.27 74.12-35.56 77.04-36.86 80.53-36.86L80.53-36.86Q83.41-36.86 85.91-36 88.4-35.14 90.36-33.57 92.32-32 93.64-29.82 94.95-27.65 95.45-25L95.45-25ZM110.65 0.64L110.65 0.64Q108.05 0.64 105.94-0.35 103.83-1.33 102.58-3.2 101.34-5.08 101.34-7.74L101.34-7.74Q101.34-10.09 102.27-11.55 103.19-13.01 104.73-13.85 106.28-14.68 108.15-15.1 110.02-15.52 111.92-15.77L111.92-15.77Q114.41-16.09 115.96-16.26 117.52-16.42 118.24-16.83 118.96-17.24 118.96-18.25L118.96-18.25 118.96-18.39Q118.96-21.02 117.53-22.48 116.1-23.93 113.2-23.93L113.2-23.93Q110.2-23.93 108.5-22.62 106.79-21.31 106.1-19.82L106.1-19.82 102.12-21.24Q103.19-23.72 104.97-25.12 106.76-26.51 108.88-27.07 111-27.63 113.06-27.63L113.06-27.63Q114.37-27.63 116.09-27.32 117.8-27.01 119.41-26.05 121.02-25.09 122.08-23.15 123.15-21.22 123.15-17.97L123.15-17.97 123.15 0 118.96 0 118.96-3.69 118.74-3.69Q118.32-2.81 117.32-1.79 116.33-0.78 114.68-0.07 113.03 0.64 110.65 0.64ZM111.29-3.13L111.29-3.13Q113.77-3.13 115.48-4.1 117.2-5.08 118.08-6.62 118.96-8.17 118.96-9.87L118.96-9.87 118.96-13.71Q118.69-13.39 117.79-13.13 116.9-12.87 115.73-12.69 114.57-12.5 113.48-12.37 112.39-12.23 111.71-12.14L111.71-12.14Q110.08-11.93 108.67-11.46 107.25-10.99 106.39-10.06 105.53-9.13 105.53-7.53L105.53-7.53Q105.53-5.34 107.16-4.23 108.78-3.13 111.29-3.13ZM135 0L130.81 0 130.81-27.27 134.86-27.27 134.86-23.01 135.22-23.01Q136.07-25.2 137.97-26.41 139.87-27.63 142.53-27.63L142.53-27.63Q145.23-27.63 147.03-26.41 148.84-25.2 149.85-23.01L149.85-23.01 150.13-23.01Q151.18-25.12 153.27-26.38 155.37-27.63 158.3-27.63L158.3-27.63Q161.96-27.63 164.28-25.35 166.61-23.06 166.61-18.25L166.61-18.25 166.61 0 162.42 0 162.42-18.25Q162.42-21.27 160.77-22.57 159.12-23.86 156.88-23.86L156.88-23.86Q154-23.86 152.42-22.13 150.84-20.4 150.84-17.76L150.84-17.76 150.84 0 146.58 0 146.58-18.68Q146.58-21 145.07-22.43 143.56-23.86 141.18-23.86L141.18-23.86Q139.55-23.86 138.14-22.99 136.73-22.12 135.87-20.59 135-19.05 135-17.05L135-17.05 135 0ZM185.71 0.57L185.71 0.57Q181.77 0.57 178.92-1.18 176.07-2.93 174.53-6.08 173-9.23 173-13.42L173-13.42Q173-17.61 174.53-20.82 176.07-24.02 178.83-25.83 181.59-27.63 185.29-27.63L185.29-27.63Q187.42-27.63 189.49-26.92 191.57-26.21 193.28-24.62 194.98-23.03 195.99-20.42 197-17.81 197-13.99L197-13.99 197-12.22 175.98-12.22 175.98-15.84 192.74-15.84Q192.74-18.15 191.83-19.96 190.91-21.77 189.24-22.82 187.56-23.86 185.29-23.86L185.29-23.86Q182.78-23.86 180.96-22.63 179.14-21.4 178.17-19.42 177.19-17.45 177.19-15.2L177.19-15.2 177.19-12.78Q177.19-9.69 178.26-7.56 179.34-5.42 181.26-4.31 183.17-3.2 185.71-3.2L185.71-3.2Q187.36-3.2 188.7-3.67 190.04-4.14 191.02-5.09 192-6.04 192.53-7.46L192.53-7.46 196.58-6.32Q195.94-4.26 194.43-2.71 192.92-1.15 190.7-0.29 188.48 0.57 185.71 0.57Z" opacity="1" transform="matrix(1,0,0,1,0,0)" fill="#264f0b" class="wordmark-text-0" data-fill-palette-color="primary" id="text-0"></path></svg></g></svg></g></svg></g></svg></g><g></g></svg></g></svg></g></svg></g><defs></defs></svg><rect width="375.07953" height="176.33250000000004" fill="none" stroke="none" visibility="hidden"></rect></g></svg></g></svg>