<svg width="30" height="30" viewBox="0 0 30 30" fill="none" xmlns="http://www.w3.org/2000/svg">
<path fill-rule="evenodd" clip-rule="evenodd" d="M7.85714 6.42857H22.1429C22.9006 6.42857 23.6273 6.72959 24.1632 7.26541C24.699 7.80123 25 8.52795 25 9.28572V20.7143C25 21.472 24.699 22.1988 24.1632 22.7346C23.6273 23.2704 22.9006 23.5714 22.1429 23.5714H7.85714C7.09938 23.5714 6.37266 23.2704 5.83684 22.7346C5.30102 22.1988 5 21.472 5 20.7143V9.28572C5 8.52795 5.30102 7.80123 5.83684 7.26541C6.37266 6.72959 7.09938 6.42857 7.85714 6.42857Z" stroke="black" stroke-width="2" stroke-linecap="round" stroke-linejoin="round"/>
<path d="M7.85718 16.4286H15M7.85718 19.2857H15M19.2857 9.28572H20.7143C21.0932 9.28572 21.4566 9.43623 21.7245 9.70414C21.9924 9.97205 22.1429 10.3354 22.1429 10.7143V12.1429C22.1429 12.5217 21.9924 12.8851 21.7245 13.153C21.4566 13.4209 21.0932 13.5714 20.7143 13.5714H19.2857C18.9069 13.5714 18.5435 13.4209 18.2756 13.153C18.0077 12.8851 17.8572 12.5217 17.8572 12.1429V10.7143C17.8572 10.3354 18.0077 9.97205 18.2756 9.70414C18.5435 9.43623 18.9069 9.28572 19.2857 9.28572Z" stroke="black" stroke-width="2" stroke-linecap="round" stroke-linejoin="round"/>
</svg>
