<svg width="21" height="20" viewBox="0 0 21 20" fill="none" xmlns="http://www.w3.org/2000/svg">
<mask id="path-2-inside-1_695_1016" fill="white">
<path fill-rule="evenodd" clip-rule="evenodd" d="M10.4795 2.91667C10.4795 2.68655 10.6661 2.5 10.8962 2.5H13.2295C13.4459 2.5 13.6263 2.66569 13.6447 2.88133C13.7675 4.32495 14.397 5.16244 15.1055 5.64424C15.8322 6.13849 16.6729 6.27782 17.211 6.25387C17.4408 6.24363 17.6355 6.4217 17.6457 6.65159C17.656 6.88148 17.4779 7.07614 17.248 7.08637C16.5639 7.11682 15.5378 6.94607 14.6368 6.33332C13.7887 5.75653 13.0767 4.80418 12.8586 3.33333H11.3128V12.0555C11.3128 13.4705 10.7526 14.5422 9.93649 15.1159C9.11866 15.6909 8.06719 15.7391 7.22591 15.1298C6.18313 14.3744 6.00316 13.1871 6.42138 12.2511C6.78453 11.4383 7.59678 10.8146 8.64616 10.7953V8.89567C7.88373 8.94525 6.90455 9.13967 6.07442 9.6555C5.11266 10.2532 4.31283 11.3029 4.31283 13.1978C4.31283 14.4239 4.64443 15.2991 5.13254 15.9242C5.62356 16.5532 6.29779 16.9606 7.03197 17.2042C7.76764 17.4483 8.54953 17.5229 9.22741 17.4942C9.91691 17.4649 10.4503 17.3311 10.7037 17.1992C11.7361 16.6613 12.3206 16.1304 12.6646 15.4564C13.0159 14.7682 13.1462 13.875 13.1462 12.5451V7.97567C13.1462 7.83188 13.2203 7.69825 13.3423 7.62215C13.4643 7.54604 13.6169 7.53822 13.7461 7.60144C14.2675 7.85675 15.7277 8.41424 17.2634 8.53954C17.4927 8.55826 17.6635 8.75933 17.6447 8.98875C17.6261 9.21808 17.425 9.38883 17.1956 9.37008C15.9413 9.26775 14.7452 8.90417 13.9795 8.60772V12.5451C13.9795 13.9057 13.8514 14.9643 13.4068 15.8352C12.955 16.7205 12.2062 17.3561 11.0887 17.9382C10.6814 18.1503 10.0096 18.2951 9.26274 18.3267C8.5042 18.3589 7.61866 18.2769 6.76948 17.9952C5.9188 17.7128 5.09075 17.2248 4.4757 16.4371C3.85773 15.6457 3.47949 14.5829 3.47949 13.1978C3.47949 11.013 4.42967 9.69642 5.63458 8.94775C6.81005 8.21729 8.18967 8.04858 9.06282 8.04858C9.29291 8.04858 9.47949 8.23513 9.47949 8.46525V11.2395C9.47949 11.3609 9.42658 11.4762 9.33466 11.5553C9.24266 11.6345 9.12074 11.6697 9.00074 11.6516C8.11306 11.5178 7.45498 11.9806 7.18222 12.591C6.91099 13.198 7.01809 13.9502 7.71474 14.4548C8.24307 14.8375 8.90457 14.8228 9.45716 14.4342C10.0117 14.0443 10.4795 13.2516 10.4795 12.0555V2.91667Z"/>
</mask>
<path fill-rule="evenodd" clip-rule="evenodd" d="M10.4795 2.91667C10.4795 2.68655 10.6661 2.5 10.8962 2.5H13.2295C13.4459 2.5 13.6263 2.66569 13.6447 2.88133C13.7675 4.32495 14.397 5.16244 15.1055 5.64424C15.8322 6.13849 16.6729 6.27782 17.211 6.25387C17.4408 6.24363 17.6355 6.4217 17.6457 6.65159C17.656 6.88148 17.4779 7.07614 17.248 7.08637C16.5639 7.11682 15.5378 6.94607 14.6368 6.33332C13.7887 5.75653 13.0767 4.80418 12.8586 3.33333H11.3128V12.0555C11.3128 13.4705 10.7526 14.5422 9.93649 15.1159C9.11866 15.6909 8.06719 15.7391 7.22591 15.1298C6.18313 14.3744 6.00316 13.1871 6.42138 12.2511C6.78453 11.4383 7.59678 10.8146 8.64616 10.7953V8.89567C7.88373 8.94525 6.90455 9.13967 6.07442 9.6555C5.11266 10.2532 4.31283 11.3029 4.31283 13.1978C4.31283 14.4239 4.64443 15.2991 5.13254 15.9242C5.62356 16.5532 6.29779 16.9606 7.03197 17.2042C7.76764 17.4483 8.54953 17.5229 9.22741 17.4942C9.91691 17.4649 10.4503 17.3311 10.7037 17.1992C11.7361 16.6613 12.3206 16.1304 12.6646 15.4564C13.0159 14.7682 13.1462 13.875 13.1462 12.5451V7.97567C13.1462 7.83188 13.2203 7.69825 13.3423 7.62215C13.4643 7.54604 13.6169 7.53822 13.7461 7.60144C14.2675 7.85675 15.7277 8.41424 17.2634 8.53954C17.4927 8.55826 17.6635 8.75933 17.6447 8.98875C17.6261 9.21808 17.425 9.38883 17.1956 9.37008C15.9413 9.26775 14.7452 8.90417 13.9795 8.60772V12.5451C13.9795 13.9057 13.8514 14.9643 13.4068 15.8352C12.955 16.7205 12.2062 17.3561 11.0887 17.9382C10.6814 18.1503 10.0096 18.2951 9.26274 18.3267C8.5042 18.3589 7.61866 18.2769 6.76948 17.9952C5.9188 17.7128 5.09075 17.2248 4.4757 16.4371C3.85773 15.6457 3.47949 14.5829 3.47949 13.1978C3.47949 11.013 4.42967 9.69642 5.63458 8.94775C6.81005 8.21729 8.18967 8.04858 9.06282 8.04858C9.29291 8.04858 9.47949 8.23513 9.47949 8.46525V11.2395C9.47949 11.3609 9.42658 11.4762 9.33466 11.5553C9.24266 11.6345 9.12074 11.6697 9.00074 11.6516C8.11306 11.5178 7.45498 11.9806 7.18222 12.591C6.91099 13.198 7.01809 13.9502 7.71474 14.4548C8.24307 14.8375 8.90457 14.8228 9.45716 14.4342C10.0117 14.0443 10.4795 13.2516 10.4795 12.0555V2.91667Z" fill="white"/>
<path d="M13.6447 2.88133L11.6518 3.05076L11.6519 3.0509L13.6447 2.88133ZM15.1055 5.64424L16.2302 3.99045L16.2301 3.99041L15.1055 5.64424ZM17.211 6.25387L17.2999 8.25189L17.3 8.25189L17.211 6.25387ZM17.248 7.08637L17.1591 5.08835L17.1591 5.08835L17.248 7.08637ZM14.6368 6.33332L13.5121 7.98709L13.5121 7.98712L14.6368 6.33332ZM12.8586 3.33333L14.8369 3.04L14.5839 1.33333H12.8586V3.33333ZM11.3128 3.33333V1.33333H9.31282V3.33333H11.3128ZM9.93649 15.1159L8.78622 13.4798L8.78619 13.4798L9.93649 15.1159ZM7.22591 15.1298L6.05266 16.7495L6.05273 16.7495L7.22591 15.1298ZM6.42138 12.2511L8.24739 13.067L8.2474 13.067L6.42138 12.2511ZM8.64616 10.7953L8.68284 12.795L10.6462 12.759V10.7953H8.64616ZM8.64616 8.89567H10.6462V6.76137L8.51637 6.89988L8.64616 8.89567ZM6.07442 9.6555L5.01884 7.95675L5.01878 7.95678L6.07442 9.6555ZM5.13254 15.9242L6.70899 14.6935L6.70896 14.6934L5.13254 15.9242ZM7.03197 17.2042L6.40197 19.1024L6.40216 19.1025L7.03197 17.2042ZM9.22741 17.4942L9.31216 19.4924L9.31218 19.4924L9.22741 17.4942ZM10.7037 17.1992L11.6274 18.9731L11.6277 18.9729L10.7037 17.1992ZM12.6646 15.4564L10.8832 14.5471L10.8832 14.5472L12.6646 15.4564ZM13.3423 7.62215L14.4008 9.31908L14.4009 9.31903L13.3423 7.62215ZM13.7461 7.60144L14.6256 5.80521L14.6254 5.80509L13.7461 7.60144ZM17.2634 8.53954L17.4261 6.54617L17.4261 6.54617L17.2634 8.53954ZM17.6447 8.98875L15.6514 8.82583L15.6513 8.8265L17.6447 8.98875ZM17.1956 9.37008L17.3585 7.37673L17.3582 7.37671L17.1956 9.37008ZM13.9795 8.60772L14.7016 6.74263L11.9795 5.68868V8.60772H13.9795ZM13.4068 15.8352L11.6255 14.9259L11.6254 14.926L13.4068 15.8352ZM11.0887 17.9382L12.0124 19.7121L12.0127 19.712L11.0887 17.9382ZM9.26274 18.3267L9.17802 16.3285L9.17801 16.3285L9.26274 18.3267ZM6.76948 17.9952L6.13949 19.8934L6.13966 19.8934L6.76948 17.9952ZM4.4757 16.4371L6.05212 15.2063L6.05207 15.2062L4.4757 16.4371ZM5.63458 8.94775L6.69011 10.6465L6.6902 10.6465L5.63458 8.94775ZM9.33466 11.5553L10.6392 13.0713L10.6399 13.0707L9.33466 11.5553ZM9.00074 11.6516L9.29877 9.67391L9.29872 9.67391L9.00074 11.6516ZM7.18222 12.591L5.35623 11.7751L5.35621 11.7751L7.18222 12.591ZM7.71474 14.4548L8.88794 12.8351L8.88793 12.8351L7.71474 14.4548ZM9.45716 14.4342L10.6074 16.0704L10.6076 16.0703L9.45716 14.4342ZM12.4795 2.91667C12.4795 3.79122 11.7705 4.5 10.8962 4.5V0.5C9.56161 0.5 8.47949 1.58188 8.47949 2.91667H12.4795ZM10.8962 4.5H13.2295V0.5H10.8962V4.5ZM13.2295 4.5C12.4073 4.5 11.7215 3.87051 11.6518 3.05076L15.6375 2.71191C15.5311 1.46087 14.4846 0.5 13.2295 0.5V4.5ZM11.6519 3.0509C11.825 5.08526 12.7663 6.47218 13.9808 7.29807L16.2301 3.99041C16.0993 3.90144 15.9818 3.78588 15.8851 3.61928C15.788 3.45209 15.6767 3.17277 15.6375 2.71177L11.6519 3.0509ZM13.9808 7.29803C15.1255 8.07651 16.4109 8.29146 17.2999 8.25189L17.1221 4.25584C17.0552 4.25882 16.9064 4.25198 16.7217 4.20503C16.5418 4.15928 16.3716 4.08663 16.2302 3.99045L13.9808 7.29803ZM17.3 8.25189C16.4261 8.29079 15.6867 7.61398 15.6477 6.74068L19.6438 6.56251C19.5843 5.22942 18.4555 4.19647 17.122 4.25585L17.3 8.25189ZM15.6477 6.74068C15.6088 5.86677 16.2857 5.12722 17.1591 5.08835L17.3369 9.0844C18.6701 9.02506 19.7032 7.8962 19.6438 6.56251L15.6477 6.74068ZM17.1591 5.08835C16.8252 5.10321 16.2441 5.00775 15.7615 4.67953L13.5121 7.98712C14.8315 8.8844 16.3026 9.13044 17.3369 9.0844L17.1591 5.08835ZM15.7616 4.67956C15.3711 4.41397 14.9723 3.95262 14.8369 3.04L10.8802 3.62667C11.1811 5.65575 12.2064 7.09909 13.5121 7.98709L15.7616 4.67956ZM12.8586 1.33333H11.3128V5.33333H12.8586V1.33333ZM9.31282 3.33333V12.0555H13.3128V3.33333H9.31282ZM9.31282 12.0555C9.31282 12.9465 8.9734 13.3482 8.78622 13.4798L11.0868 16.752C12.5317 15.7361 13.3128 13.9945 13.3128 12.0555H9.31282ZM8.78619 13.4798C8.6859 13.5503 8.60421 13.5665 8.55704 13.5672C8.51755 13.5679 8.46792 13.5598 8.39909 13.51L6.05273 16.7495C7.64693 17.9042 9.63443 17.7731 11.0868 16.752L8.78619 13.4798ZM8.39915 13.51C8.31997 13.4527 8.2793 13.4038 8.25826 13.3726C8.23696 13.3411 8.22583 13.3132 8.2196 13.2875C8.20657 13.2337 8.2083 13.1545 8.24739 13.067L4.59538 11.4352C3.82562 13.1579 4.17687 15.3907 6.05266 16.7495L8.39915 13.51ZM8.2474 13.067C8.2814 12.9909 8.33736 12.9231 8.40637 12.8759C8.46867 12.8332 8.55505 12.7973 8.68284 12.795L8.60948 8.79567C6.73489 8.83006 5.25416 9.96078 4.59537 11.4352L8.2474 13.067ZM10.6462 10.7953V8.89567H6.64616V10.7953H10.6462ZM8.51637 6.89988C7.56965 6.96145 6.22963 7.20438 5.01884 7.95675L7.13 11.3542C7.57948 11.075 8.19782 10.929 8.77595 10.8915L8.51637 6.89988ZM5.01878 7.95678C3.47346 8.9171 2.31283 10.6072 2.31283 13.1978H6.31283C6.31283 12.5391 6.44934 12.148 6.57962 11.9145C6.70972 11.6812 6.89047 11.5031 7.13005 11.3542L5.01878 7.95678ZM2.31283 13.1978C2.31283 14.8058 2.75649 16.1309 3.55612 17.1551L6.70896 14.6934C6.53237 14.4673 6.31283 14.042 6.31283 13.1978H2.31283ZM3.5561 17.155C4.34465 18.165 5.38789 18.7659 6.40197 19.1024L7.66196 15.3061C7.2077 15.1553 6.90247 14.9413 6.70899 14.6935L3.5561 17.155ZM6.40216 19.1025C7.41009 19.4369 8.44067 19.5293 9.31216 19.4924L9.14266 15.496C8.65839 15.5165 8.12519 15.4598 7.66177 15.306L6.40216 19.1025ZM9.31218 19.4924C10.1392 19.4573 11.0048 19.2973 11.6274 18.9731L9.77994 15.4253C9.8397 15.3941 9.86599 15.3878 9.84094 15.396C9.8211 15.4025 9.77846 15.415 9.71172 15.4292C9.57747 15.4578 9.38343 15.4857 9.14264 15.496L9.31218 19.4924ZM11.6277 18.9729C12.8645 18.3286 13.8433 17.5464 14.446 16.3656L10.8832 14.5472C10.7978 14.7144 10.6077 14.994 9.77963 15.4254L11.6277 18.9729ZM14.4459 16.3657C15.0211 15.2389 15.1462 13.948 15.1462 12.5451H11.1462C11.1462 13.802 11.0107 14.2975 10.8832 14.5471L14.4459 16.3657ZM15.1462 12.5451V7.97567H11.1462V12.5451H15.1462ZM15.1462 7.97567C15.1462 8.52232 14.8642 9.03001 14.4008 9.31908L12.2838 5.92522C11.5764 6.36649 11.1462 7.14144 11.1462 7.97567H15.1462ZM14.4009 9.31903C13.9373 9.60826 13.3574 9.63792 12.8668 9.39779L14.6254 5.80509C13.8764 5.43851 12.9914 5.48382 12.2837 5.92527L14.4009 9.31903ZM12.8666 9.39768C13.5516 9.73312 15.2563 10.3824 17.1008 10.5329L17.4261 6.54617C16.1992 6.44606 14.9833 5.98038 14.6256 5.80521L12.8666 9.39768ZM17.1007 10.5329C16.2291 10.4618 15.5802 9.6974 15.6514 8.82583L19.6381 9.15166C19.7468 7.82127 18.7564 6.65474 17.4261 6.54617L17.1007 10.5329ZM15.6513 8.8265C15.7223 7.95432 16.4871 7.30551 17.3585 7.37673L17.0327 11.3634C18.3629 11.4722 19.5298 10.4818 19.6381 9.151L15.6513 8.8265ZM17.3582 7.37671C16.3558 7.29492 15.3545 6.99543 14.7016 6.74263L13.2574 10.4728C14.1358 10.8129 15.5269 11.2406 17.0329 11.3635L17.3582 7.37671ZM11.9795 8.60772V12.5451H15.9795V8.60772H11.9795ZM11.9795 12.5451C11.9795 13.8315 11.8464 14.4931 11.6255 14.9259L15.1882 16.7446C15.8564 15.4355 15.9795 13.9798 15.9795 12.5451H11.9795ZM11.6254 14.926C11.4324 15.3042 11.0783 15.6885 10.1646 16.1645L12.0127 19.712C13.334 19.0236 14.4775 18.1368 15.1882 16.7445L11.6254 14.926ZM10.1649 16.1644C10.1734 16.16 10.0905 16.2005 9.88547 16.2442C9.69451 16.285 9.45211 16.3169 9.17802 16.3285L9.34747 20.325C10.2322 20.2874 11.2361 20.1164 12.0124 19.7121L10.1649 16.1644ZM9.17801 16.3285C8.61299 16.3525 7.97616 16.2883 7.39931 16.0969L6.13966 19.8934C7.26115 20.2655 8.39541 20.3653 9.34748 20.325L9.17801 16.3285ZM7.39947 16.097C6.82823 15.9074 6.3694 15.6126 6.05212 15.2063L2.89928 17.6679C3.8121 18.837 5.00937 19.5183 6.13949 19.8934L7.39947 16.097ZM6.05207 15.2062C5.74596 14.8142 5.47949 14.2016 5.47949 13.1978H1.47949C1.47949 14.9643 1.96951 16.4772 2.89933 17.668L6.05207 15.2062ZM5.47949 13.1978C5.47949 11.7088 6.06882 11.0326 6.69011 10.6465L4.57906 7.24897C2.79051 8.36027 1.47949 10.3172 1.47949 13.1978H5.47949ZM6.6902 10.6465C7.42342 10.1908 8.38083 10.0486 9.06282 10.0486V6.04858C7.99851 6.04858 6.19668 6.24375 4.57896 7.24903L6.6902 10.6465ZM9.06282 10.0486C8.18844 10.0486 7.47949 9.33981 7.47949 8.46525H11.4795C11.4795 7.13046 10.3974 6.04858 9.06282 6.04858V10.0486ZM7.47949 8.46525V11.2395H11.4795V8.46525H7.47949ZM7.47949 11.2395C7.47949 10.7782 7.68069 10.3403 8.02946 10.0399L10.6399 13.0707C11.1725 12.612 11.4795 11.9437 11.4795 11.2395H7.47949ZM8.03014 10.0393C8.37919 9.73899 8.84228 9.60512 9.29877 9.67391L8.70272 13.6293C9.3992 13.7342 10.1061 13.53 10.6392 13.0713L8.03014 10.0393ZM9.29872 9.67391C7.47436 9.39902 5.97537 10.3895 5.35623 11.7751L9.0082 13.4069C8.97873 13.4729 8.92601 13.5375 8.84625 13.5826C8.80564 13.6056 8.76566 13.6189 8.73247 13.6249C8.69909 13.6308 8.68684 13.6269 8.70276 13.6293L9.29872 9.67391ZM5.35621 11.7751C4.73024 13.176 5.01784 14.971 6.54155 16.0746L8.88793 12.8351C8.8869 12.8343 8.91405 12.8543 8.94768 12.9032C8.9815 12.9524 9.01089 13.0151 9.0283 13.0863C9.06333 13.2296 9.0367 13.3432 9.00822 13.4069L5.35621 11.7751ZM6.54155 16.0746C7.81824 16.9993 9.41542 16.9084 10.6074 16.0704L8.30687 12.7981C8.33051 12.7815 8.41257 12.7359 8.54746 12.7339C8.68805 12.7319 8.81067 12.7791 8.88794 12.8351L6.54155 16.0746ZM10.6076 16.0703C11.7886 15.2398 12.4795 13.7788 12.4795 12.0555H8.47949C8.47949 12.7243 8.23475 12.8489 8.30674 12.7982L10.6076 16.0703ZM12.4795 12.0555V2.91667H8.47949V12.0555H12.4795Z" fill="white" mask="url(#path-2-inside-1_695_1016)"/>
</svg>
