<svg width="21" height="20" viewBox="0 0 21 20" fill="none" xmlns="http://www.w3.org/2000/svg">
<g clip-path="url(#clip0_695_1018)">
<path d="M18.6836 0H1.80859C0.945312 0 0.246094 0.699219 0.246094 1.5625V18.4375C0.246094 19.3008 0.945312 20 1.80859 20H18.6836C19.5469 20 20.2461 19.3008 20.2461 18.4375V1.5625C20.2461 0.699219 19.5469 0 18.6836 0ZM19.0742 18.4375C19.0742 18.6523 18.8984 18.8281 18.6836 18.8281H1.80859C1.59375 18.8281 1.41797 18.6523 1.41797 18.4375V1.5625C1.41797 1.34766 1.59375 1.17188 1.80859 1.17188H18.6836C18.8984 1.17188 19.0742 1.34766 19.0742 1.5625V18.4375Z" fill="white"/>
<path d="M14.9844 6.56641C14.5859 6.80078 14.1484 6.97266 13.6797 7.06641C13.3047 6.66797 12.7695 6.41797 12.1797 6.41797C11.0469 6.41797 10.125 7.33984 10.125 8.47266C10.125 8.63281 10.1406 8.78906 10.1797 8.94141C8.47266 8.85547 6.95703 8.03906 5.94531 6.79297C5.76953 7.09766 5.66797 7.44922 5.66797 7.82813C5.66797 8.53906 6.03125 9.16797 6.58203 9.53906C6.24609 9.52734 5.92969 9.43359 5.65234 9.28125V9.30469C5.65234 10.3008 6.35937 11.1328 7.30078 11.3203C7.12891 11.3672 6.94531 11.3945 6.75781 11.3945C6.625 11.3945 6.49609 11.3828 6.37109 11.3594C6.63281 12.1758 7.39062 12.7695 8.28906 12.7852C7.58594 13.3359 6.69922 13.6641 5.73828 13.6641C5.57422 13.6641 5.41016 13.6563 5.24609 13.6367C6.15625 14.2188 7.23437 14.5586 8.39453 14.5586C12.1758 14.5586 14.2422 11.4258 14.2422 8.71094C14.2422 8.62109 14.2422 8.53125 14.2383 8.44531C14.6406 8.15234 14.9883 7.79297 15.2617 7.37891C14.8945 7.54297 14.4961 7.65234 14.082 7.70313C14.5078 7.44922 14.832 7.04688 14.9844 6.56641Z" fill="white"/>
</g>
<defs>
<clipPath id="clip0_695_1018">
<rect width="20" height="20" fill="white" transform="translate(0.246094)"/>
</clipPath>
</defs>
</svg>
