<svg width="30" height="30" viewBox="0 0 30 30" fill="none" xmlns="http://www.w3.org/2000/svg">
<path d="M14.2751 27.2688C14.4871 27.4188 14.7404 27.4993 15.0001 27.4993C15.2598 27.4993 15.5131 27.4188 15.7251 27.2688C16.1051 26.9975 25.0364 20.55 25.0001 12.5C25.0001 6.98625 20.5139 2.5 15.0001 2.5C9.48636 2.5 5.00011 6.98625 5.00011 12.495C4.96386 20.55 13.8951 26.9975 14.2751 27.2688ZM15.0001 5C19.1364 5 22.5001 8.36375 22.5001 12.505C22.5264 18.0525 17.0151 23.0338 15.0001 24.6688C12.9864 23.0338 7.47386 18.0525 7.50011 12.5C7.50011 8.36375 10.8639 5 15.0001 5Z" fill="#4A25CF"/>
</svg>
